# xmcd
#
# Track frame offsets:
#	150
#	9407
#	28712
#	46145
#	61037
#	77515
#	88452
#	99217
#	113935
#	128550
#	137132
#	145075
#
# Disc length: 2155 seconds
#
# Revision: 1
# Processed by: cddbd v1.5.1PL2 Copyright (c) Steve Scherf et al.
# Submitted via: audiograbber 1.83.01
#
DISCID=9108690c
DTITLE=Various Artist - Home for christmas
DYEAR=1900
DGENRE=country
TTITLE0=Dusty, Slim - christmas on the station
TTITLE1=McDonald, Hugh - When christmas comes around
TTITLE2=Jeffreys, Gina - Nothing but a child
TTITLE3=Bundy Bluegrass Allstars - The Santa song
TTITLE4=Kanes, the - Mary's having a baby
TTITLE5=Saunders, Kane and Del - The little drummer boy
TTITLE6=Champion, Greg - Scratched you off my Xmas list
TTITLE7=McKenna, Tess- The loneliest day in december
TTITLE8=Kirkpatrick, Anne - Peace to all man
TTITLE9=Six White Boomers, the - Jingle bells breakdown
TTITLE10=Saunders, Jane - Christmas lullaby
TTITLE11=Parlane, Brent - Home for christmas
EXTD=
EXTT0=
EXTT1=
EXTT2=
EXTT3=
EXTT4=
EXTT5=
EXTT6=
EXTT7=
EXTT8=
EXTT9=
EXTT10=
EXTT11=
PLAYORDER=
